<svg width="292" height="54" viewBox="0 0 292 54" fill="none" xmlns="http://www.w3.org/2000/svg">
<path d="M14.364 37.004C15.084 38.624 15.516 39.848 15.696 40.784H18.252C18.54 39.596 18.9 38.66 19.62 37.04L26.964 20.876C27.648 19.4 28.152 17.96 28.512 16.484C28.368 17.96 28.26 19.904 28.26 20.912V36.536C28.26 38.264 28.188 39.56 27.972 40.784H31.248C31.032 39.488 30.96 38.516 30.96 36.536V17.708C30.96 15.836 31.032 14.792 31.248 13.424H27.108C26.892 14.468 26.496 15.584 25.884 16.988L17.028 36.824L8.136 16.988C7.596 15.8 7.164 14.504 6.948 13.424H2.772C2.988 14.756 3.06 15.908 3.06 17.708V36.536C3.06 38.408 2.988 39.452 2.772 40.784H6.048C5.832 39.56 5.76 38.444 5.76 36.536V21.128C5.76 20.264 5.616 18.032 5.508 16.484C6.192 18.68 6.588 19.796 7.128 20.948L14.364 37.004Z" fill="white"/>
<path d="M42.208 40.784C44.224 40.784 45.232 40.856 46.384 41.036V37.976C44.98 38.156 44.008 38.228 42.208 38.228H30.868V17.672C30.868 15.692 30.94 14.756 31.156 13.424H27.772C27.988 14.684 28.06 15.8 28.06 17.672V36.608C28.06 38.372 27.988 39.524 27.772 40.892C29.032 40.82 30.04 40.784 31.696 40.784H42.208Z" fill="white"/>
<path d="M87.068 16.88C87.068 15.98 87.068 15.08 87.176 14.18H85.7C85.412 15.08 84.98 15.98 84.548 16.88L74.648 37.724C74.324 38.372 74 39.056 73.676 39.848C73.352 39.056 73.028 38.372 72.704 37.724L62.804 16.88C62.372 15.98 61.94 15.08 61.652 14.18H60.14C60.248 15.08 60.248 15.98 60.248 16.88V38.3C60.248 39.2 60.248 40.1 60.14 41H61.184C61.076 40.1 61.076 39.2 61.076 38.3V17.276C61.076 16.52 61.076 15.8 61.004 15.008C61.4 15.908 61.652 16.448 62.12 17.42L72.02 38.3C72.452 39.2 72.812 40.064 73.1 41H74.216C74.504 40.064 74.864 39.2 75.296 38.3L85.196 17.42C85.7 16.412 85.916 15.944 86.312 15.044C86.24 15.8 86.24 16.52 86.24 17.276V38.3C86.24 39.2 86.24 40.1 86.132 41H87.176C87.068 40.1 87.068 39.2 87.068 38.3V16.88ZM105.92 41H106.82C106.748 40.1 106.712 39.344 106.712 38.264V28.58C106.712 24.044 104.66 21.992 100.196 21.992C98.7565 21.992 97.5325 22.28 96.4165 22.856C95.5525 23.288 94.7605 23.9 94.0045 24.656L94.5085 25.304C95.0845 24.656 95.8045 24.044 96.7045 23.576C97.7125 23.072 98.7925 22.748 100.124 22.748C104.12 22.748 105.884 24.512 105.884 28.688V30.452C105.128 30.38 104.228 30.344 102.86 30.344C95.9485 30.344 92.6005 32.288 92.6005 36.32C92.6005 39.488 94.9045 41.36 98.8645 41.36C102.104 41.36 104.66 39.704 106.028 36.68H106.1C105.992 37.544 105.92 38.516 105.92 39.344V41ZM105.884 35.924C104.48 39.02 102.14 40.604 98.8645 40.604C95.3725 40.604 93.3925 39.056 93.3925 36.32C93.3925 32.72 96.3805 31.064 102.86 31.064C104.192 31.064 105.092 31.1 105.884 31.172V35.924ZM122.486 39.992C121.73 40.388 120.938 40.604 119.894 40.604C117.266 40.604 115.79 39.236 115.79 36.68V23.036H118.922C120.146 23.036 120.866 23.072 121.622 23.144V22.172C120.866 22.244 120.146 22.28 118.922 22.28H115.79V19.004C115.79 17.744 115.826 17.024 115.898 16.268H114.854C114.926 17.024 114.962 17.744 114.962 19.004V22.28H113.162C111.938 22.28 111.218 22.244 110.426 22.172V23.144C111.218 23.072 111.938 23.036 113.162 23.036H114.962V36.896C114.962 39.704 116.726 41.36 119.894 41.36C120.866 41.36 121.946 41.144 122.738 40.712L122.486 39.992ZM141.228 31.352V30.704C141.228 25.016 138.384 21.812 133.344 21.812C128.052 21.812 124.812 25.484 124.812 31.532C124.812 37.364 128.412 41.36 133.632 41.36C135.828 41.36 137.88 40.676 139.392 39.452C139.86 39.092 140.436 38.552 140.76 38.156L140.184 37.616C139.788 38.156 139.32 38.624 138.744 39.056C137.376 40.064 135.54 40.604 133.632 40.604C128.808 40.604 125.64 37.004 125.64 31.532V31.352H141.228ZM125.676 30.632C125.964 25.592 128.808 22.568 133.308 22.568C137.88 22.568 140.4 25.448 140.4 30.632H125.676ZM147.363 26.888C147.471 26.24 147.543 24.872 147.543 23.684V22.28H146.607C146.679 23.036 146.715 23.72 146.715 24.98V38.3C146.715 39.524 146.679 40.244 146.607 41H147.651C147.579 40.244 147.543 39.524 147.543 38.3V28.472C148.191 25.088 150.603 22.712 153.411 22.712C154.455 22.712 155.283 22.892 156.219 23.288L156.507 22.496C155.823 22.136 154.779 21.956 153.663 21.956C150.819 21.956 148.407 23.936 147.435 26.888H147.363ZM161.183 15.044C160.679 15.044 160.283 15.404 160.283 15.908C160.283 16.448 160.679 16.808 161.183 16.808C161.687 16.808 162.047 16.448 162.047 15.908C162.047 15.404 161.687 15.044 161.183 15.044ZM160.643 22.28C160.715 23.036 160.751 23.72 160.751 24.98V38.3C160.751 39.524 160.715 40.244 160.643 41H161.687C161.615 40.244 161.579 39.524 161.579 38.3V24.98C161.579 23.72 161.615 23.036 161.687 22.28H160.643ZM180.381 41H181.281C181.209 40.1 181.173 39.344 181.173 38.264V28.58C181.173 24.044 179.121 21.992 174.657 21.992C173.217 21.992 171.993 22.28 170.877 22.856C170.013 23.288 169.221 23.9 168.465 24.656L168.969 25.304C169.545 24.656 170.265 24.044 171.165 23.576C172.173 23.072 173.253 22.748 174.585 22.748C178.581 22.748 180.345 24.512 180.345 28.688V30.452C179.589 30.38 178.689 30.344 177.321 30.344C170.409 30.344 167.061 32.288 167.061 36.32C167.061 39.488 169.365 41.36 173.325 41.36C176.565 41.36 179.121 39.704 180.489 36.68H180.561C180.453 37.544 180.381 38.516 180.381 39.344V41ZM180.345 35.924C178.941 39.02 176.601 40.604 173.325 40.604C169.833 40.604 167.853 39.056 167.853 36.32C167.853 32.72 170.841 31.064 177.321 31.064C178.653 31.064 179.553 31.1 180.345 31.172V35.924ZM197.693 40.244V16.952C197.693 16.052 197.693 15.152 197.801 14.252H196.757C196.865 15.152 196.865 16.052 196.865 16.952V38.408C196.865 39.308 196.865 40.208 196.757 41.108C197.657 41 198.629 41 199.529 41H210.761C211.661 41 212.561 41 213.461 41.108V40.136C212.561 40.244 211.661 40.244 210.761 40.244H197.693ZM230.198 41H231.098C231.026 40.1 230.99 39.344 230.99 38.264V28.58C230.99 24.044 228.938 21.992 224.474 21.992C223.034 21.992 221.81 22.28 220.694 22.856C219.83 23.288 219.038 23.9 218.282 24.656L218.786 25.304C219.362 24.656 220.082 24.044 220.982 23.576C221.99 23.072 223.07 22.748 224.402 22.748C228.398 22.748 230.162 24.512 230.162 28.688V30.452C229.406 30.38 228.506 30.344 227.138 30.344C220.226 30.344 216.878 32.288 216.878 36.32C216.878 39.488 219.182 41.36 223.142 41.36C226.382 41.36 228.938 39.704 230.306 36.68H230.378C230.27 37.544 230.198 38.516 230.198 39.344V41ZM230.162 35.924C228.758 39.02 226.418 40.604 223.142 40.604C219.65 40.604 217.67 39.056 217.67 36.32C217.67 32.72 220.658 31.064 227.138 31.064C228.47 31.064 229.37 31.1 230.162 31.172V35.924ZM238.699 27.896C238.807 27.104 238.879 26.096 238.879 25.196V16.34C238.879 15.08 238.915 14.396 238.987 13.64H237.943C238.015 14.396 238.051 15.08 238.051 16.34V38.3C238.051 39.524 238.015 40.244 237.943 41H238.879V37.976C238.879 37.004 238.807 36.068 238.699 35.384H238.807C239.851 39.092 242.623 41.36 246.403 41.36C251.407 41.36 254.719 37.472 254.719 31.64C254.719 25.7 251.443 21.884 246.403 21.884C242.551 21.884 239.815 24.116 238.771 27.896H238.699ZM246.403 40.604C241.831 40.604 238.879 37.112 238.879 31.64C238.879 26.096 241.795 22.64 246.403 22.64C251.011 22.64 253.891 26.132 253.891 31.64C253.891 37.148 251.011 40.604 246.403 40.604ZM258.327 37.724C258.867 38.552 259.587 39.308 260.379 39.884C261.711 40.892 263.367 41.36 265.491 41.36C269.703 41.36 272.223 39.416 272.223 36.176C272.223 33.332 270.495 31.964 265.491 30.956C261.675 30.2 260.199 29.12 260.199 26.996C260.199 24.296 262.179 22.676 265.491 22.676C266.715 22.676 267.903 22.928 268.947 23.432C269.775 23.864 270.459 24.404 270.891 24.944L271.467 24.332C270.891 23.684 269.991 23.036 269.091 22.64C268.011 22.172 266.823 21.92 265.491 21.92C261.819 21.92 259.371 23.936 259.371 26.996C259.371 29.552 261.063 30.92 265.347 31.784C269.991 32.72 271.395 33.764 271.395 36.248C271.395 39.092 269.307 40.604 265.527 40.604C263.583 40.604 261.963 40.172 260.811 39.236C260.091 38.66 259.443 37.94 258.939 37.148L258.327 37.724Z" fill="white"/>
</svg>
